<svg width="360" height="379" viewBox="0 0 360 379" fill="none" xmlns="http://www.w3.org/2000/svg">
<g clip-path="url(#clip0_2_1244)">
<path fill-rule="evenodd" clip-rule="evenodd" d="M-332.195 942.007V971H-331.195V942.007H-256.572V971H-255.572V942.007H-180.949V971H-179.949V942.007H-105.326V971H-104.326V942.007H-29.7032V971H-28.7032V942.007H45.9198V971H46.9198V942.007H121.543V971H122.543V942.007H197.166V971H198.166V942.007H272.789V971H273.789V942.007H348.412V971H349.412V942.007L424.035 942.007V971H425.035V942.007H499.658V971H500.658V942.007L575.281 942.007V971H576.281V942.007H640.833V941.007H576.281L576.281 866.935L640.833 866.935V865.935L576.281 865.935V791.862L640.833 791.862V790.862L576.281 790.862V716.79L640.833 716.79V715.79L576.281 715.79V641.718L640.833 641.718V640.718L576.281 640.718V566.645L640.833 566.645V565.645L576.281 565.645V491.573L640.833 491.573V490.573L576.281 490.573V416.5L640.833 416.5V415.5L576.281 415.5V341.428H640.833V340.428H576.281V266.355H640.833V265.355H576.281V191.283H640.833V190.283H576.281V116.21L640.833 116.21V115.21L576.281 115.21V41.1378L640.833 41.1378V40.1378L576.281 40.1378V-33.9346L640.833 -33.9346V-34.9346L576.281 -34.9346V-109.007L640.833 -109.007V-110.007L576.281 -110.007V-139H575.281V-110.007L500.658 -110.007V-139H499.658V-110.007L425.035 -110.007V-139H424.035V-110.007L349.412 -110.007V-139H348.412V-110.007L273.789 -110.007V-139H272.789V-110.007L198.166 -110.007V-139H197.166V-110.007L122.543 -110.007V-139H121.543V-110.007L46.9197 -110.007V-139H45.9197V-110.007L-28.7033 -110.007V-139H-29.7033V-110.007L-104.326 -110.007V-139H-105.326V-110.007L-179.949 -110.007V-139H-180.949V-110.007L-255.572 -110.007V-139H-256.572V-110.007L-331.195 -110.007V-139H-332.195V-110.007L-400 -110.007V-109.007L-332.195 -109.007L-332.195 -34.9348L-400 -34.9348V-33.9348L-332.195 -33.9348V40.1376L-400 40.1376V41.1376L-332.195 41.1376L-332.195 115.21L-400 115.21V116.21L-332.195 116.21V190.283L-400 190.283V191.283L-332.195 191.283L-332.195 265.355L-400 265.355V266.355L-332.195 266.355V340.428L-400 340.428V341.428L-332.195 341.428L-332.195 415.5H-400V416.5H-332.195L-332.195 490.572H-400V491.572H-332.195L-332.195 565.645H-400V566.645H-332.195L-332.195 640.717H-400V641.717H-332.195V715.79H-400V716.79H-332.195L-332.195 790.862H-400V791.862H-332.195V865.935H-400V866.935H-332.195L-332.195 941.007H-400V942.007H-332.195ZM575.281 -109.007L500.658 -109.007V-34.9346L575.281 -34.9346V-109.007ZM575.281 -33.9346L500.658 -33.9346V40.1378L575.281 40.1378V-33.9346ZM575.281 41.1378L500.658 41.1378V115.21L575.281 115.21V41.1378ZM575.281 116.21L500.658 116.21V190.283L575.281 190.283V116.21ZM575.281 191.283L500.658 191.283V265.355L575.281 265.355V191.283ZM575.281 266.355L500.658 266.355V340.428L575.281 340.428V266.355ZM575.281 341.428L500.658 341.428V415.5L575.281 415.5V341.428ZM575.281 416.5L500.658 416.5V490.573L575.281 490.573V416.5ZM575.281 491.573L500.658 491.573V565.645L575.281 565.645V491.573ZM575.281 566.645L500.658 566.645V640.718L575.281 640.718V566.645ZM575.281 641.718L500.658 641.718V715.79L575.281 715.79V641.718ZM575.281 716.79L500.658 716.79V790.862L575.281 790.862V716.79ZM575.281 791.862L500.658 791.862V865.935L575.281 865.935V791.862ZM575.281 866.935L500.658 866.935L500.658 941.007L575.281 941.007L575.281 866.935ZM499.658 866.935L499.658 941.007H425.035L425.035 866.935H499.658ZM499.658 791.862V865.935H425.035V791.862H499.658ZM499.658 716.79V790.862H425.035V716.79H499.658ZM499.658 641.718V715.79H425.035V641.718H499.658ZM499.658 566.645V640.718H425.035V566.645H499.658ZM499.658 491.573V565.645H425.035V491.573H499.658ZM499.658 416.5V490.573H425.035V416.5H499.658ZM499.658 341.428V415.5H425.035V341.428H499.658ZM499.658 266.355V340.428H425.035V266.355H499.658ZM499.658 191.283V265.355H425.035V191.283H499.658ZM499.658 116.21V190.283H425.035V116.21L499.658 116.21ZM499.658 41.1378V115.21L425.035 115.21V41.1378L499.658 41.1378ZM499.658 -33.9346V40.1378L425.035 40.1378V-33.9346L499.658 -33.9346ZM499.658 -109.007V-34.9346L425.035 -34.9346V-109.007L499.658 -109.007ZM424.035 -109.007L349.412 -109.007V-34.9346L424.035 -34.9346V-109.007ZM424.035 -33.9346L349.412 -33.9346V40.1378L424.035 40.1378V-33.9346ZM424.035 41.1378L349.412 41.1378V115.21L424.035 115.21V41.1378ZM424.035 116.21L349.412 116.21V190.283L424.035 190.283V116.21ZM424.035 191.283L349.412 191.283V265.355L424.035 265.355V191.283ZM424.035 266.355L349.412 266.355V340.428L424.035 340.428V266.355ZM424.035 341.428L349.412 341.428V415.5L424.035 415.5V341.428ZM424.035 416.5L349.412 416.5V490.573L424.035 490.573V416.5ZM424.035 491.573L349.412 491.573V565.645L424.035 565.645V491.573ZM424.035 566.645L349.412 566.645V640.718L424.035 640.718V566.645ZM424.035 641.718L349.412 641.718V715.79L424.035 715.79V641.718ZM424.035 716.79L349.412 716.79V790.862L424.035 790.862V716.79ZM424.035 791.862L349.412 791.862V865.935L424.035 865.935V791.862ZM424.035 866.935L349.412 866.935L349.412 941.007L424.035 941.007L424.035 866.935ZM348.412 866.935L348.412 941.007H273.789L273.789 866.935H348.412ZM348.412 791.862V865.935H273.789V791.862H348.412ZM348.412 716.79V790.862H273.789V716.79H348.412ZM348.412 641.718V715.79H273.789V641.718H348.412ZM348.412 566.645V640.718H273.789V566.645H348.412ZM348.412 491.573V565.645H273.789V491.573H348.412ZM348.412 416.5V490.573H273.789V416.5H348.412ZM348.412 341.428V415.5H273.789V341.428H348.412ZM348.412 266.355V340.428H273.789V266.355H348.412ZM348.412 191.283V265.355H273.789V191.283H348.412ZM348.412 116.21V190.283H273.789V116.21L348.412 116.21ZM348.412 41.1378V115.21L273.789 115.21V41.1377L348.412 41.1378ZM348.412 -33.9346V40.1378L273.789 40.1377V-33.9346L348.412 -33.9346ZM348.412 -109.007V-34.9346L273.789 -34.9346V-109.007L348.412 -109.007ZM272.789 -109.007L198.166 -109.007V-34.9347L272.789 -34.9346V-109.007ZM272.789 -33.9346L198.166 -33.9347V40.1377L272.789 40.1377V-33.9346ZM272.789 41.1377L198.166 41.1377V115.21L272.789 115.21V41.1377ZM272.789 116.21L198.166 116.21V190.283L272.789 190.283V116.21ZM272.789 191.283L198.166 191.283V265.355L272.789 265.355V191.283ZM272.789 266.355L198.166 266.355V340.428L272.789 340.428V266.355ZM272.789 341.428L198.166 341.428V415.5L272.789 415.5V341.428ZM272.789 416.5L198.166 416.5V490.572L272.789 490.573V416.5ZM272.789 491.573L198.166 491.572V565.645L272.789 565.645V491.573ZM272.789 566.645L198.166 566.645V640.717L272.789 640.718V566.645ZM272.789 641.718L198.166 641.717V715.79L272.789 715.79V641.718ZM272.789 716.79L198.166 716.79V790.862L272.789 790.862V716.79ZM272.789 791.862L198.166 791.862V865.935L272.789 865.935V791.862ZM272.789 866.935L198.166 866.935L198.166 941.007H272.789L272.789 866.935ZM197.166 866.935L197.166 941.007H122.543L122.543 866.935H197.166ZM197.166 791.862V865.935H122.543V791.862H197.166ZM197.166 716.79V790.862H122.543V716.79H197.166ZM197.166 641.717V715.79H122.543V641.717H197.166ZM197.166 566.645V640.717H122.543V566.645H197.166ZM197.166 491.572V565.645H122.543V491.572H197.166ZM197.166 416.5V490.572H122.543V416.5H197.166ZM197.166 341.428V415.5H122.543V341.428H197.166ZM197.166 266.355V340.428H122.543V266.355H197.166ZM197.166 191.283V265.355H122.543V191.283H197.166ZM197.166 116.21V190.283H122.543V116.21L197.166 116.21ZM197.166 41.1377V115.21L122.543 115.21V41.1377L197.166 41.1377ZM197.166 -33.9347V40.1377L122.543 40.1377V-33.9347L197.166 -33.9347ZM197.166 -109.007V-34.9347L122.543 -34.9347V-109.007L197.166 -109.007ZM121.543 -109.007L46.9197 -109.007V-34.9347L121.543 -34.9347V-109.007ZM121.543 -33.9347L46.9197 -33.9347V40.1377L121.543 40.1377V-33.9347ZM121.543 41.1377L46.9197 41.1377V115.21L121.543 115.21V41.1377ZM121.543 116.21L46.9197 116.21L46.9197 190.283L121.543 190.283V116.21ZM121.543 191.283L46.9197 191.283V265.355L121.543 265.355V191.283ZM121.543 266.355L46.9197 266.355V340.428L121.543 340.428V266.355ZM121.543 341.428L46.9197 341.428L46.9197 415.5L121.543 415.5V341.428ZM121.543 416.5L46.9197 416.5V490.572L121.543 490.572V416.5ZM121.543 491.572L46.9197 491.572V565.645L121.543 565.645V491.572ZM121.543 566.645L46.9197 566.645V640.717L121.543 640.717V566.645ZM121.543 641.717L46.9197 641.717L46.9198 715.79L121.543 715.79V641.717ZM121.543 716.79L46.9198 716.79V790.862L121.543 790.862V716.79ZM121.543 791.862L46.9198 791.862V865.935L121.543 865.935V791.862ZM121.543 866.935L46.9198 866.935V941.007H121.543L121.543 866.935ZM45.9198 866.935V941.007H-28.7032V866.935H45.9198ZM45.9198 791.862V865.935H-28.7032V791.862H45.9198ZM45.9198 716.79V790.862H-28.7032V716.79H45.9198ZM45.9197 641.717L45.9198 715.79H-28.7032L-28.7033 641.717H45.9197ZM45.9197 566.645V640.717H-28.7033V566.645H45.9197ZM45.9197 491.572V565.645H-28.7033V491.572H45.9197ZM45.9197 416.5V490.572H-28.7033V416.5H45.9197ZM45.9197 341.428L45.9197 415.5H-28.7033L-28.7033 341.428H45.9197ZM45.9197 266.355V340.428H-28.7033V266.355H45.9197ZM45.9197 191.283V265.355H-28.7033V191.283H45.9197ZM45.9197 116.21L45.9197 190.283H-28.7033L-28.7033 116.21L45.9197 116.21ZM45.9197 41.1377V115.21L-28.7033 115.21V41.1377L45.9197 41.1377ZM45.9197 -33.9347V40.1377L-28.7033 40.1377V-33.9347L45.9197 -33.9347ZM45.9197 -109.007V-34.9347L-28.7033 -34.9347V-109.007L45.9197 -109.007ZM-29.7033 -109.007L-104.326 -109.007V-34.9347L-29.7033 -34.9347V-109.007ZM-29.7033 -33.9347L-104.326 -33.9347V40.1377L-29.7033 40.1377V-33.9347ZM-29.7033 41.1377L-104.326 41.1377V115.21L-29.7033 115.21V41.1377ZM-29.7033 116.21L-104.326 116.21L-104.326 190.283L-29.7033 190.283L-29.7033 116.21ZM-29.7033 191.283L-104.326 191.283V265.355L-29.7033 265.355V191.283ZM-29.7033 266.355L-104.326 266.355V340.428L-29.7033 340.428V266.355ZM-29.7033 341.428L-104.326 341.428L-104.326 415.5H-29.7033L-29.7033 341.428ZM-29.7033 416.5H-104.326V490.572H-29.7033V416.5ZM-29.7033 491.572H-104.326V565.645H-29.7033V491.572ZM-29.7033 566.645H-104.326V640.717H-29.7033V566.645ZM-29.7033 641.717H-104.326L-104.326 715.79H-29.7032L-29.7033 641.717ZM-29.7032 716.79H-104.326V790.862H-29.7032V716.79ZM-29.7032 791.862H-104.326V865.935H-29.7032V791.862ZM-29.7032 866.935H-104.326V941.007H-29.7032V866.935ZM-105.326 866.935V941.007H-179.949V866.935H-105.326ZM-105.326 791.862V865.935H-179.949L-179.949 791.862H-105.326ZM-105.326 716.79V790.862H-179.949V716.79H-105.326ZM-105.326 641.717L-105.326 715.79H-179.949V641.717H-105.326ZM-105.326 566.645V640.717H-179.949L-179.949 566.645H-105.326ZM-105.326 491.572V565.645H-179.949L-179.949 491.572H-105.326ZM-105.326 416.5V490.572H-179.949V416.5H-105.326ZM-105.326 341.428L-105.326 415.5H-179.949V341.428H-105.326ZM-105.326 266.355V340.428H-179.949L-179.949 266.355H-105.326ZM-105.326 191.283V265.355H-179.949V191.283H-105.326ZM-105.326 116.21L-105.326 190.283H-179.949L-179.949 116.21L-105.326 116.21ZM-105.326 41.1377V115.21L-179.949 115.21V41.1376L-105.326 41.1377ZM-105.326 -33.9347V40.1377L-179.949 40.1376L-179.949 -33.9348L-105.326 -33.9347ZM-105.326 -109.007V-34.9347L-179.949 -34.9348V-109.007L-105.326 -109.007ZM-180.949 -109.007L-255.572 -109.007V-34.9348L-180.949 -34.9348V-109.007ZM-180.949 -33.9348L-255.572 -33.9348L-255.572 40.1376L-180.949 40.1376L-180.949 -33.9348ZM-180.949 41.1376L-255.572 41.1376V115.21L-180.949 115.21V41.1376ZM-180.949 116.21L-255.572 116.21L-255.572 190.283H-180.949L-180.949 116.21ZM-180.949 191.283H-255.572V265.355H-180.949V191.283ZM-180.949 266.355H-255.572L-255.572 340.428H-180.949L-180.949 266.355ZM-180.949 341.428H-255.572V415.5H-180.949V341.428ZM-180.949 416.5H-255.572V490.572H-180.949V416.5ZM-180.949 491.572H-255.572L-255.572 565.645H-180.949L-180.949 491.572ZM-180.949 566.645H-255.572L-255.572 640.717H-180.949L-180.949 566.645ZM-180.949 641.717H-255.572V715.79H-180.949V641.717ZM-180.949 716.79H-255.572V790.862H-180.949V716.79ZM-180.949 791.862H-255.572L-255.572 865.935H-180.949L-180.949 791.862ZM-180.949 866.935H-255.572V941.007H-180.949V866.935ZM-256.572 866.935V941.007H-331.195L-331.195 866.935H-256.572ZM-256.572 791.862L-256.572 865.935H-331.195V791.862H-256.572ZM-256.572 716.79V790.862H-331.195L-331.195 716.79H-256.572ZM-256.572 641.717V715.79H-331.195V641.717H-256.572ZM-256.572 566.645L-256.572 640.717H-331.195L-331.195 566.645H-256.572ZM-256.572 491.572L-256.572 565.645H-331.195L-331.195 491.572H-256.572ZM-256.572 416.5V490.572H-331.195L-331.195 416.5H-256.572ZM-256.572 341.428V415.5H-331.195L-331.195 341.428L-256.572 341.428ZM-256.572 266.355L-256.572 340.428L-331.195 340.428V266.355L-256.572 266.355ZM-256.572 191.283V265.355L-331.195 265.355L-331.195 191.283L-256.572 191.283ZM-256.572 116.21V190.283L-331.195 190.283V116.21L-256.572 116.21ZM-256.572 41.1376V115.21L-331.195 115.21L-331.195 41.1376L-256.572 41.1376ZM-256.572 -33.9348L-256.572 40.1376L-331.195 40.1376V-33.9348L-256.572 -33.9348ZM-256.572 -109.007V-34.9348L-331.195 -34.9348L-331.195 -109.007L-256.572 -109.007Z" fill="url(#paint0_radial_2_1244)"/>
<circle cx="237.5" cy="77.5" r="37.5" fill="#F2F7FF"/>
<mask id="mask0_2_1244" style="mask-type:alpha" maskUnits="userSpaceOnUse" x="-27" y="42" width="74" height="146">
<rect width="146" height="73.8264" transform="matrix(-4.37114e-08 1 1 4.37114e-08 -27 42)" fill="#FFF6DE"/>
</mask>
<g mask="url(#mask0_2_1244)">
<circle cx="73" cy="73" r="73" transform="matrix(-4.37114e-08 1 1 4.37114e-08 -99.7246 42)" fill="#FFF6DE"/>
</g>
</g>
<defs>
<radialGradient id="paint0_radial_2_1244" cx="0" cy="0" r="1" gradientUnits="userSpaceOnUse" gradientTransform="translate(110.44 212.489) rotate(71.1387) scale(536.945 1127.9)">
<stop stop-color="#DADADA"/>
<stop offset="1" stop-color="#EFEFEF" stop-opacity="0"/>
</radialGradient>
<clipPath id="clip0_2_1244">
<rect width="360" height="379" fill="white"/>
</clipPath>
</defs>
</svg>
