<svg width="126" height="126" viewBox="0 0 126 126" fill="none" xmlns="http://www.w3.org/2000/svg">
<path d="M60.4346 0H125.185V71.2255H60.4346V0Z" fill="white"/>
<path d="M0 62.5918H77.7006V71.2252H0V62.5918Z" fill="#454A6D"/>
<path d="M47.4854 62.5923V45.3255L54.3316 52.1718C57.703 55.5432 63.1701 55.5432 66.5414 52.1718L82.0189 36.6921L73.3855 28.0587L60.4354 41.0088L50.0689 28.9156C48.4286 27.0011 46.0349 25.9004 43.514 25.9004H12.9518C8.18396 25.9004 4.31836 29.766 4.31836 34.5338V53.9589C4.31836 58.7267 8.18396 62.5923 12.9518 62.5923H47.4854Z" fill="#005DF2"/>
<path d="M34.5335 62.5912H30.2168V53.9578C30.2168 52.7664 29.2477 51.7994 28.0585 51.7994H15.1084V43.166H19.4251V47.4827H28.0585C31.6284 47.4827 34.5335 50.3879 34.5335 53.9578V62.5912Z" fill="#5496FF"/>
<path d="M36.6919 15.1084C36.6919 21.4173 31.2766 26.4635 24.8404 25.8506C19.2287 25.3153 15.1084 20.282 15.1084 14.6444V4.3167C15.1084 1.93172 17.0401 0 19.4251 0H32.3752C34.7602 0 36.6919 1.93172 36.6919 4.3167V6.47505L41.0086 15.1084H36.6919Z" fill="#B6D2FF"/>
<path d="M19.4268 25.9004L25.9018 38.8505L32.3769 25.9004H19.4268Z" fill="white"/>
<path d="M101.441 17.5218L88.491 11.0468L76.5057 17.0405L74.5762 13.1771L88.491 6.2207L101.441 12.6958L113.426 6.70202L115.356 10.5655L101.441 17.5218Z" fill="#454A6D"/>
<path d="M74.0049 28.6973L86.9526 15.7496L90.0045 18.8015L77.0568 31.7492L74.0049 28.6973Z" fill="#454A6D"/>
<path d="M90.6484 30.2168H116.549V34.5335H90.6484V30.2168Z" fill="#454A6D"/>
<path d="M90.6484 38.8496H116.549V43.1663H90.6484V38.8496Z" fill="#454A6D"/>
<path d="M90.6484 47.4844H116.549V51.8011H90.6484V47.4844Z" fill="#454A6D"/>
<path d="M90.6484 56.1172H116.549V60.4339H90.6484V56.1172Z" fill="#454A6D"/>
<path d="M17.2644 101.441C11.3052 101.441 6.47266 106.274 6.47266 112.233V125.183H28.0562V112.233C28.0562 106.274 23.2236 101.441 17.2644 101.441Z" fill="#5496FF"/>
<path d="M17.2633 101.443C22.0314 101.443 25.8967 97.5773 25.8967 92.8092C25.8967 88.0411 22.0314 84.1758 17.2633 84.1758C12.4952 84.1758 8.62988 88.0411 8.62988 92.8092C8.62988 97.5773 12.4952 101.443 17.2633 101.443Z" fill="#5496FF"/>
<path d="M47.4812 101.441C41.522 101.441 36.6895 106.274 36.6895 112.233V125.183H58.2729V112.233C58.2729 106.274 53.4404 101.441 47.4812 101.441Z" fill="#5496FF"/>
<path d="M47.4811 101.443C52.2492 101.443 56.1145 97.5773 56.1145 92.8092C56.1145 88.0411 52.2492 84.1758 47.4811 84.1758C42.713 84.1758 38.8477 88.0411 38.8477 92.8092C38.8477 97.5773 42.713 101.443 47.4811 101.443Z" fill="#5496FF"/>
<path d="M77.699 101.441C71.7398 101.441 66.9072 106.274 66.9072 112.233V125.183H88.4907V112.233C88.4907 106.274 83.6582 101.441 77.699 101.441Z" fill="#5496FF"/>
<path d="M77.6979 101.443C82.4659 101.443 86.3313 97.5773 86.3313 92.8092C86.3313 88.0411 82.4659 84.1758 77.6979 84.1758C72.9298 84.1758 69.0645 88.0411 69.0645 92.8092C69.0645 97.5773 72.9298 101.443 77.6979 101.443Z" fill="#5496FF"/>
<path d="M107.913 101.441C101.954 101.441 97.1211 106.274 97.1211 112.233V125.183H118.705V112.233C118.705 106.274 113.872 101.441 107.913 101.441Z" fill="#5496FF"/>
<path d="M107.916 101.443C112.684 101.443 116.549 97.5773 116.549 92.8092C116.549 88.0411 112.684 84.1758 107.916 84.1758C103.148 84.1758 99.2822 88.0411 99.2822 92.8092C99.2822 97.5773 103.148 101.443 107.916 101.443Z" fill="#5496FF"/>
<path d="M4.31836 71.2246H73.3856V82.0164H4.31836V71.2246Z" fill="#33385C"/>
</svg>
