<svg width="117" height="126" viewBox="0 0 117 126" fill="none" xmlns="http://www.w3.org/2000/svg">
<path d="M32.5835 15.1084C32.5835 21.4173 27.1682 26.4635 20.732 25.8506C15.1203 25.3153 11 20.282 11 14.6444V4.3167C11 1.93172 12.9317 0 15.3167 0H28.2668C30.6518 0 32.5835 1.93172 32.5835 4.3167V6.47505L36.9002 15.1084H32.5835Z" fill="#B6D2FF"/>
<path d="M0 35.1855C0 30.215 4.02944 26.1855 9 26.1855H37C41.9706 26.1855 46 30.215 46 35.1855V68.1855H9C4.02944 68.1855 0 64.1561 0 59.1855V35.1855Z" fill="#005DF2"/>
<path d="M22.2857 39.1855L16 26.1855H28L22.2857 39.1855Z" fill="white"/>
<circle cx="39" cy="33.1855" r="7" fill="#005DF2"/>
<circle cx="58" cy="52.1855" r="7" fill="#005DF2"/>
<path d="M53 56.6855L34 38.1855L43.5 27.6855L62 46.6855L53 56.6855Z" fill="#005DF2"/>
<path d="M84.4165 15.1084C84.4165 21.4173 89.8318 26.4635 96.268 25.8506C101.88 25.3153 106 20.282 106 14.6444V4.3167C106 1.93172 104.068 0 101.683 0H88.7332C86.3482 0 84.4165 1.93172 84.4165 4.3167V6.47505L80.0998 15.1084H84.4165Z" fill="#B6D2FF"/>
<path d="M117 35.1855C117 30.215 112.971 26.1855 108 26.1855H80C75.0294 26.1855 71 30.215 71 35.1855V68.1855H108C112.971 68.1855 117 64.1561 117 59.1855V35.1855Z" fill="#5496FF"/>
<path d="M94.7143 39.1855L101 26.1855H89L94.7143 39.1855Z" fill="white"/>
<circle cx="7" cy="7" r="7" transform="matrix(-1 0 0 1 85 26.1855)" fill="#5496FF"/>
<circle cx="7" cy="7" r="7" transform="matrix(-1 0 0 1 66 45.1855)" fill="#5496FF"/>
<path d="M64 56.6855L83 38.1855L73.5 27.6855L55 46.6855L64 56.6855Z" fill="#5496FF"/>
<path d="M1 62.1855H117V71.1855H1V62.1855Z" fill="#454A6D"/>
<path d="M7 71.1855H111V82.1855H7V71.1855Z" fill="#33385C"/>
<path d="M1 82.1855H117V125.186H1V82.1855Z" fill="#454A6D"/>
</svg>
