<svg width="510" height="147" viewBox="0 0 510 147" fill="none" xmlns="http://www.w3.org/2000/svg">
<path d="M510 9.94241V144.624C509.174 144.607 508.35 144.469 507.536 144.211C506.557 143.858 506.041 143.412 506.101 142.483C506.235 140.8 503.678 139.092 501.562 139.209C499.555 139.321 497.499 139.386 495.514 139.17C494.074 139.013 492.482 139.308 491.162 138.515C490.687 138.208 490.119 138.568 489.667 138.797C488.744 139.254 487.863 139.94 487.05 140.833C486.876 141.093 486.673 141.286 486.454 141.399C486.235 141.511 486.005 141.542 485.779 141.488C484.817 141.269 483.839 141.444 482.923 141.998C481.559 142.738 480.092 142.655 478.758 141.763C477.93 141.144 477.004 141.052 476.141 141.501C475.603 141.763 475.618 142.227 475.446 142.633C475.354 142.813 475.236 142.947 475.105 143.022C474.973 143.097 474.833 143.109 474.698 143.059C474.324 143 474.022 142.764 474.111 142.489C474.448 141.435 473.64 140.754 472.967 140.002C472.727 139.77 472.536 139.407 472.425 138.967C472.313 138.358 471.838 138.038 471.244 137.73C469.984 137.075 468.739 136.42 467.506 135.707C465.879 134.777 464.07 134.771 462.208 135C461.564 135.092 460.939 135.422 460.373 135.969C460.096 136.198 460.077 136.42 460.395 136.623C461.797 138.024 461.487 139.412 459.322 140.643C458.3 141.174 457.259 141.579 456.204 141.854C455.477 142.024 454.737 141.951 454.025 141.638C451.913 140.859 451.569 140.984 450.32 142.627C449.983 143.075 449.624 143.472 449.247 143.812C448.548 144.467 446.971 144.669 446.032 144.309C445.202 143.995 444.806 143.301 445.475 142.516C446.765 141.016 446.017 140.06 444.503 139.124C443.591 138.574 443.09 137.815 443.142 136.872C443.142 136.682 443.056 136.427 442.683 136.44C442.57 136.419 442.457 136.439 442.349 136.5C442.241 136.561 442.142 136.661 442.058 136.794C441.834 137.448 441.43 138.005 441.228 138.594C440.462 140.885 437.793 142.195 436.72 144.296C436.62 144.473 436.498 144.61 436.365 144.696C435.322 145.449 431.482 144.931 430.944 143.877C430.537 143.085 430.021 142.895 429.075 143.164C427.284 143.687 425.516 144.008 423.972 142.699C423.598 142.391 423.063 142.529 422.596 142.588C421.169 142.8 419.735 142.8 418.308 142.588C417.492 142.518 416.674 142.578 415.863 142.764C414.376 143.117 412.862 142.841 411.448 141.959C410.888 141.56 410.222 141.265 409.658 140.872C408.83 140.271 407.934 140.02 407.041 140.139C406.3 140.24 405.556 140.163 404.828 139.91C402.958 139.255 400.943 139.38 398.981 139.255C397.938 139.177 397.265 139.471 396.966 140.283C396.659 141.022 396.245 141.603 395.766 141.966C394.711 142.877 393.537 143.285 392.364 143.151C390.558 143.072 388.674 142.83 386.999 143.805C386.47 143.968 385.932 144.025 385.395 143.975C384.625 144.003 383.861 144.223 383.126 144.63C381.07 145.73 378.928 146.156 376.677 144.925C375.976 144.575 375.245 144.438 374.517 144.519C372.603 144.703 370.702 143.885 369.055 142.169C367.462 140.663 365.159 139.982 362.744 140.597C361.025 141.036 360.318 140.82 359.38 139.556C359.006 139.046 358.595 138.542 358.258 138.005C357.654 137.157 356.915 136.658 356.142 136.578L355.869 136.512C354.577 136.18 353.298 135.712 352.038 135.111C350.58 134.456 350.198 134.535 349.002 135.484C348.808 135.635 348.628 135.812 348.441 135.962L348.015 136.29C346.852 137.206 346.95 137.337 347.94 138.646L348.269 139.065C348.737 139.648 349.552 140.316 348.684 140.918C347.981 141.403 346.987 141.003 346.187 140.702C345.189 140.316 344.654 139.694 344.471 138.803C344.344 138.149 343.783 138.208 343.279 138.581C343.079 138.767 342.89 138.986 342.714 139.236C342.168 139.89 341.566 140.054 340.647 139.583C339.054 138.784 337.779 139.065 336.751 140.342C335.88 141.429 335.525 141.52 334.194 140.794C333.194 140.208 332.167 139.77 331.125 139.484C330.729 139.391 330.342 139.197 329.977 138.908L329.79 138.758C328.422 137.592 328.015 137.527 326.598 138.561L326.362 138.745C326.182 138.935 325.981 139.06 325.772 139.111C325.563 139.161 325.351 139.137 325.147 139.039C324.19 138.489 323.529 138.902 322.773 139.347C320.927 140.427 318.743 140.957 316.568 141.396C315.11 141.649 313.638 141.461 312.216 140.84C309.536 139.759 308.029 140.185 306.5 142.273C305.872 143.051 305.105 143.407 304.339 143.275C302.377 143.17 300.351 143.491 298.478 142.732C297.827 142.498 297.155 142.538 296.515 142.849C296.1 143.039 295.719 143.275 295.3 143.452C293.921 144.061 292.971 143.831 292.261 142.738C290.59 140.185 287.644 139.033 284.003 139.543C282.935 139.717 281.858 139.602 280.81 139.203C279.988 138.843 279.148 138.624 278.301 138.548C276.088 138.411 275.857 138.496 274.802 140.074C273.748 141.651 271.471 142.372 269.46 141.632C267.112 140.761 264.884 141.435 262.705 141.848C261.667 142.139 260.61 142.139 259.572 141.848C258.278 141.324 256.943 141.196 255.624 141.468C254.569 141.706 253.497 141.543 252.48 140.99C251.472 140.493 250.409 140.45 249.389 140.866C247.736 141.37 246.024 141.743 244.331 142.175C243.672 142.345 243 142.29 242.353 142.011C241.609 141.671 240.852 141.422 240.088 141.265C237.788 140.898 235.975 139.818 234.162 138.777C233.255 138.224 232.296 137.98 231.336 138.057C230.108 138.156 228.877 138.097 227.654 137.88C226.685 137.71 225.882 137.782 225.231 138.378C224.379 139.17 223.362 139.321 222.091 139.124C220.334 138.862 219.952 139.203 220.409 140.558C220.637 141.213 220.782 141.867 219.994 142.326C219.23 142.692 218.424 142.692 217.661 142.326L216.36 141.841C215.612 141.566 214.939 141.455 214.446 142.182C214.023 142.797 213.343 142.758 212.681 142.463C211.863 142.097 210.939 141.769 210.479 141.232C210.403 141.172 210.337 141.08 210.286 140.965C210.235 140.849 210.201 140.714 210.186 140.57C210.172 140.426 210.178 140.278 210.203 140.139C210.229 140 210.274 139.874 210.334 139.772C209.83 139.547 209.298 139.609 208.816 139.949C207.475 140.704 206.064 141.006 204.659 140.84C204.416 140.84 204.173 140.84 203.911 140.768C203.44 140.702 202.995 140.669 202.554 140.663C202.247 140.663 201.948 140.663 201.646 140.663C200.898 140.722 200.15 140.846 199.376 141.01C197.466 141.409 195.877 142.175 194.161 142.81C193.974 142.876 193.787 142.967 193.623 143.046C190.756 144.355 190.707 144.421 188.12 142.705C187.175 142.006 186.128 141.848 185.129 142.254C182.602 143.34 180.696 142.057 178.636 141.331C178.262 141.193 178.142 140.826 177.922 140.558C177.129 139.57 175.772 139.249 174.486 139.026C173.72 138.889 172.722 139.157 172.273 139.681C170.92 141.311 168.579 141.645 166.632 142.476C165.611 142.915 164.564 143.275 163.641 143.851C161.837 144.917 159.912 145.194 158.033 144.656C156.357 144.229 154.655 144.181 152.972 144.512C151.824 144.755 150.664 144.773 149.514 144.565C148.112 144.264 146.785 144.794 145.461 144.696C144.138 144.597 143.106 143.674 141.596 143.851C140.861 143.82 140.129 143.697 139.405 143.484C137.82 143.21 137.36 143.347 136.766 144.545C136.452 145.2 136.037 145.2 135.353 145.082C134.358 144.859 133.423 144.545 132.485 144.205C130.728 143.55 130.037 143.969 130.272 145.435C130.485 146.745 130.171 146.954 128.728 146.463C127.799 146.205 126.88 145.844 125.977 145.383C124.058 144.259 122.061 143.598 120.04 143.419C118.562 143.288 117.081 143.288 115.603 143.419C113.524 143.543 111.404 144.453 109.27 143.498C108.638 143.21 107.95 143.498 107.281 143.615C105.225 144.067 104.638 143.615 105 141.985C105.221 140.977 103.442 138.817 102.26 138.712C102.007 138.701 101.754 138.763 101.513 138.895C101.253 139.082 100.975 139.174 100.694 139.164C100.414 139.154 100.137 139.042 99.8826 138.836C99.4003 138.437 98.7611 138.502 98.1442 138.502C96.7049 138.502 96.432 138.777 96.7124 139.864C96.7535 140.021 96.8246 140.172 96.8732 140.336C97.4863 142.3 96.2526 143.229 93.774 142.705C93.4264 142.62 93.0264 142.516 92.989 142.247C92.8357 141.095 91.774 140.08 92.3161 138.797C92.7946 137.664 91.9759 136.957 90.5328 137.291C88.6935 137.717 86.7346 137.763 84.9776 138.417C84.657 138.54 84.3324 138.627 84.0056 138.679C82.6859 138.921 82.0766 138.633 81.7214 137.619C81.0896 135.812 79.4148 135.163 77.2914 135.956C76.5205 136.249 75.7383 136.444 74.9512 136.538C73.9112 136.624 72.8796 136.907 71.8745 137.383C71.0707 137.808 70.3791 137.894 69.8221 137.114C69.6895 136.918 69.533 136.777 69.3646 136.702C69.1962 136.627 69.0202 136.62 68.8501 136.682C68.3529 136.813 68.4165 137.18 68.4127 137.494C68.4356 137.818 68.4456 138.144 68.4426 138.47C68.3641 139.229 67.9903 139.812 66.9473 139.988C66.2511 140.066 65.5643 140.311 64.9061 140.715C63.4444 141.717 61.7621 141.658 60.0686 141.232C58.4387 140.833 56.8199 140.447 56.3302 138.83C56.1246 138.142 55.1638 137.789 54.2965 137.566C53.1974 137.291 52.2142 137.52 51.9563 138.365C51.2348 140.728 48.8198 141.219 46.401 141.638C44.6066 141.939 42.9206 142.62 41.0103 142.548C40.3385 142.581 39.6795 142.877 39.0812 143.412C38.83 143.616 38.5563 143.722 38.2794 143.722C38.0024 143.722 37.7287 143.616 37.4775 143.412C36.1316 142.476 34.4307 142.463 32.8082 142.489C29.9782 142.529 28.4231 141.874 27.3352 139.936C26.2473 137.998 26.0679 137.815 23.5781 138.561C21.3575 139.216 19.5032 139.504 17.6864 137.979C16.873 137.468 15.9926 137.381 15.1517 137.73C13.9668 138.14 12.754 138.246 11.5517 138.044C11.281 137.985 11.0073 137.985 10.7367 138.044C9.53225 138.458 8.28563 138.267 7.14035 137.494C6.5614 137.215 5.95688 137.137 5.36086 137.265C4.25626 137.475 3.13881 137.251 2.08976 136.61C1.59981 136.305 1.08002 136.174 0.56076 136.224H0V10.6691C0.408057 10.7904 0.802832 11.0224 1.17012 11.3565C1.34937 11.4793 1.54068 11.5389 1.73312 11.5322C1.92555 11.5255 2.11533 11.4524 2.29164 11.3172C2.71782 10.9768 2.54959 10.6626 2.29164 10.2763C1.07292 8.66578 1.07292 8.60033 2.57202 7.10111C3.22297 6.53308 3.82358 5.80316 4.35523 4.93407C5.34965 3.0224 7.574 2.5641 9.78713 2.12546C9.9685 2.05808 10.1571 2.0841 10.3303 2.20026C10.5034 2.31643 10.6536 2.51778 10.7629 2.78014C11.2046 3.43849 11.7605 3.8156 12.3402 3.85008C12.9199 3.88455 13.4892 3.57438 13.9555 2.97003C14.6358 2.02728 15.5144 1.9291 16.6396 1.84399C17.6252 1.70178 18.6155 1.98972 19.5219 2.682C20.6173 3.50036 22.1388 3.99131 23.4846 4.58707C23.9452 4.71388 24.4161 4.6625 24.8641 4.43651C25.5445 4.17464 26.2099 3.89972 26.909 3.67058C28.4268 3.19921 28.509 3.22535 29.0698 4.43651C29.3185 4.96223 29.668 5.31133 30.053 5.41853C31.0773 5.82444 31.7091 5.65426 32.1316 4.80317C32.7671 3.4938 32.7708 3.49379 34.4008 3.55926C35.572 3.67547 36.7454 3.41358 37.8625 2.7867C38.8687 2.22457 39.9268 2.0024 40.9803 2.13201C43.1038 2.31533 45.1786 2.66892 46.9618 3.67058C47.8656 4.22481 48.8154 4.51452 49.7731 4.52817C50.6479 4.52817 50.9843 4.921 50.7637 5.60842C50.3301 6.91778 51.3843 7.67721 52.4348 8.38426L52.846 8.66581C53.3548 8.93532 53.8951 8.9646 54.4124 8.75084C55.418 8.37301 56.4664 8.57043 57.4031 9.31394C57.6642 9.54123 57.9424 9.70214 58.2293 9.79185C59.6387 10.1519 60.3639 10.8328 60.263 12.0636C60.192 12.9736 61.0967 13.314 61.9976 13.3729C63.3547 13.4842 64.7453 13.5104 66.1099 13.3729C67.2314 13.2813 67.8893 12.4171 68.7753 11.9261C70.1698 11.147 70.1399 11.0816 71.5305 11.7559C72.0292 12.0233 72.5495 12.145 73.0708 12.1159C74.4315 12.0243 75.8297 12.0374 77.1494 11.8017C78.8351 11.453 80.5338 11.337 82.2298 11.4547C83.1757 11.5529 83.7252 11.35 83.8411 10.4465C83.8411 10.3811 83.8411 10.3156 83.871 10.2632C84.0579 9.1175 84.2972 9.15028 85.9421 8.99315C88.4132 8.75092 90.5515 8.10277 91.4375 5.95542C92.0095 4.56749 92.4581 4.47577 94.1628 5.07153C94.6053 5.29806 95.0679 5.38017 95.5273 5.31376C97.1872 4.79001 98.4395 5.52981 99.7069 6.13211C100.522 6.52492 101.202 7.06184 101.984 7.52012C102.309 7.7747 102.656 7.9318 103.012 7.98492C104.47 7.48081 105.718 8.32532 107.075 8.27949C107.315 8.23307 107.549 8.12497 107.771 7.9587C110.327 6.41316 113.022 5.6901 115.726 5.82443C117.016 5.87681 118.32 5.7066 119.621 5.66732C120.818 5.54701 122.019 5.7256 123.188 6.19765C124.432 6.81214 125.759 6.6714 126.952 5.7983C128.058 4.98936 129.25 4.60746 130.448 4.67874C131.805 4.67874 132.982 3.86044 134.437 4.07648C134.852 4.1354 135.151 3.79497 135.184 3.4218C135.191 3.03734 135.227 2.65616 135.293 2.28913C135.446 1.77193 135.932 1.4315 136.597 1.39222C137.263 1.35294 137.51 1.7785 137.622 2.22368C137.996 3.80801 139.117 4.84242 141.136 5.26141C141.389 5.31624 141.64 5.41048 141.883 5.54296C144.294 6.7576 146.816 7.14879 149.312 6.69521C149.987 6.61196 150.665 6.6779 151.33 6.89157C153.002 7.36949 154.676 7.84091 156.34 8.33847C157.461 8.67236 158.321 9.1961 158.669 10.2174C159.017 11.2387 159.417 11.5267 160.729 11.2583C162.291 10.9768 163.652 10.9965 164.979 11.8279C165.889 12.2431 166.837 12.3189 167.764 12.0505C169.041 11.8297 170.328 11.8891 171.596 12.2272C173.305 12.6004 174.18 12.1683 174.243 10.8459C174.292 9.84421 174.266 8.836 175.48 8.22714C176.882 7.53274 178.343 7.2822 179.795 7.48735C182.444 7.87155 185.111 7.34674 187.645 5.94231C188.31 5.52992 189.036 5.52992 189.701 5.94231C190.382 6.39404 190.412 6.9505 190.045 7.55936C189.769 8.01109 189.01 8.44321 189.671 8.9866C190.333 9.52999 191.07 9.07826 191.772 8.90804C193.858 8.43012 195.761 7.46112 198.038 7.44148C198.58 7.44148 199.13 7.17307 199.302 6.72134C199.81 5.41198 200.872 4.2205 201.025 2.75401C201.238 0.691761 202.386 0.21385 205.01 0.305505C207.178 0.384067 209.044 1.30058 211.171 1.40533C211.536 1.46097 211.894 1.62246 212.229 1.88323C214.15 3.1926 216.341 4.22703 218.405 5.35963C219.859 6.1518 221.302 6.99634 223.298 6.669C224.102 6.53151 225.029 6.74102 225.418 7.40879C226.308 8.9473 227.979 8.77052 229.463 8.46282C231.078 8.15617 232.708 8.15617 234.323 8.46282C234.523 8.45791 234.722 8.49085 234.917 8.56104C236.413 9.49724 238.08 9.35975 239.777 9.13716C241.303 8.92766 242.581 9.58884 243.852 10.0602C245.389 10.6363 246.701 10.715 247.987 9.72639C248.712 9.21034 249.505 9.04961 250.278 9.26151C251.689 9.63609 253.131 9.34226 254.454 8.41047C256.234 7.19931 258.294 6.59042 260.473 6.07977C261.497 5.83754 262.522 6.00773 263.524 5.88988C265.8 5.64765 267.92 5.67388 269.905 6.83267C270.86 7.24332 271.835 7.48674 272.817 7.55936C274.384 7.82123 275.883 8.10271 276.877 9.24185C277.256 9.54686 277.66 9.74783 278.073 9.83764C278.481 9.96857 278.888 10.0864 279.3 10.1977C281.221 10.7415 283.166 10.9934 285.113 10.9506C285.692 10.9506 286.272 10.8786 286.862 10.7935C287.4 10.7835 287.927 10.5357 288.395 10.0733C288.851 9.51029 289.517 9.41862 290.313 9.32697C293.397 8.97344 296.436 8.67232 299.263 7.31713C301.169 6.37048 303.175 6.21584 305.121 6.86543C305.513 7.01153 305.913 7.08392 306.313 7.08145C308.818 7.02908 311.102 7.73614 313.416 8.31881C314.358 8.5545 314.822 9.02586 314.874 9.8704C314.968 11.3107 315.401 11.5071 317.005 10.9441C317.713 10.6456 318.443 10.5397 319.17 10.6299C319.371 10.6725 319.576 10.6614 319.775 10.5971C322.575 9.32046 325.573 10.3025 328.437 10.2763C330.331 10.367 332.216 10.7703 334.067 11.4809L334.875 11.7428C336.378 12.2498 337.924 12.2364 339.424 11.7035C340.172 11.435 340.875 11.0881 341.619 10.8131C342.74 10.4072 343.428 9.75252 343.862 8.84906C344.699 7.10761 345.652 6.88501 347.813 7.69681C349.555 8.31706 351.316 8.7543 353.088 9.00618C354.509 9.23532 355.526 9.60195 355.97 10.7345C356.24 11.3892 356.913 11.7493 357.746 11.9588C359.339 12.3516 359.675 12.2796 360.871 11.1601C361.035 10.9075 361.237 10.744 361.453 10.6893C361.669 10.6347 361.889 10.6913 362.086 10.8524C362.236 10.9576 362.389 11.0408 362.546 11.1012C363.032 11.4809 363.496 11.8868 364.004 12.2469C364.386 12.5837 364.809 12.7514 365.237 12.7354C365.665 12.7195 366.083 12.5202 366.457 12.1552C366.591 12.0374 366.673 11.8803 366.801 11.7559C369.163 9.37939 371.305 8.48248 375.257 8.24025C375.946 8.16728 376.626 7.92259 377.276 7.51356C377.626 7.29835 377.998 7.2111 378.368 7.25727C378.738 7.30343 379.099 7.48198 379.429 7.78193L380.005 8.29915C380.633 8.85563 381.283 9.39247 381.93 9.93586C382.801 10.6593 383.791 10.8149 384.722 10.3745C385.682 9.89421 386.687 9.74989 387.678 9.94984C388.67 10.1498 389.63 10.6901 390.502 11.5398C391.747 12.7051 393.306 13.386 394.79 14.2044C396.274 15.0227 397.829 14.4139 397.983 12.967C398.01 12.7456 397.993 12.5141 397.934 12.3124C397.811 11.9326 397.609 11.566 397.601 11.1863C397.601 10.9506 397.669 10.7084 397.889 10.4531C398.514 9.77258 399.215 9.33701 399.945 9.1764C400.691 8.9552 401.414 8.54963 402.095 7.97181C403.362 6.98979 404.506 6.89815 405.65 7.90636C406.611 8.75744 407.654 8.90143 408.932 8.84251C410.159 8.71753 411.389 9.01335 412.551 9.71329C414.207 10.8132 415.123 10.7935 416.933 9.77874C417.733 9.32879 418.589 9.26768 419.407 9.60196C421.081 10.2042 422.82 9.89581 424.391 8.71816C425.881 7.43729 427.427 6.36888 429.015 5.5233C430.57 4.6984 431.535 4.7508 432.496 5.95542C433.456 7.16003 434.454 7.26477 435.965 7.00289C436.985 6.84915 438.011 6.86226 439.03 7.04213C439.568 7.16715 440.113 7.15396 440.649 7.00289C441.976 6.49879 443.165 6.58389 444.04 7.40224C444.574 7.40224 444.679 7.22544 444.817 7.03558C445.438 6.16485 445.939 6.00773 446.855 6.54457C447.771 7.08141 448.458 7.74923 449.752 7.33023C451.045 6.91124 452.059 6.18451 452.537 5.09119C452.941 4.16809 453.797 3.64434 454.851 3.12714C456.649 2.2826 458.406 1.54284 460.597 1.68032C461.467 1.67735 462.335 1.80657 463.191 2.06656C463.631 2.27569 464.082 2.39219 464.537 2.41356C467.087 2.24335 468.713 3.50032 470.395 4.69184C470.7 4.93936 471.015 5.14515 471.337 5.30729C472.384 5.75902 473.371 5.40544 473.3 4.43651C473.192 2.95038 474.545 2.47246 475.708 1.89634C476.063 1.67021 476.441 1.57169 476.819 1.60656C477.196 1.64143 477.566 1.809 477.906 2.09933C478.466 2.55099 479.077 2.77482 479.693 2.75401C481.255 2.91768 482.56 3.4087 483.274 4.6395C483.727 5.41857 484.56 5.74591 485.633 5.62152C487.685 5.38584 489.719 5.96847 491.779 5.67387C492.418 5.63809 493.055 5.83425 493.648 6.24999C494.566 6.83751 495.564 6.9265 496.512 6.50533C496.754 6.38134 497.009 6.34347 497.26 6.394C498.355 7.12725 500.082 7.20586 500.804 8.2468C502.77 11.0816 505.163 10.8655 509.166 10.1061C509.45 10.0995 509.727 10.021 510 9.94241Z" fill="#D4E4FF"/>
<path d="M510 10.729V121.506C509.814 121.584 509.632 121.687 509.454 121.812C508.748 122.256 507.973 122.235 507.275 121.754C506.2 121.176 505.091 120.809 503.97 120.659C503.665 120.538 503.346 120.576 503.054 120.77C502.845 121.011 503.076 121.226 503.289 121.421C503.716 121.786 504.161 122.151 504.594 122.509C505.028 122.868 505.409 123.161 505.761 123.5C506.232 123.963 506.759 124.464 506.359 125.057C505.959 125.65 505.02 125.618 504.209 125.631C503.798 125.631 503.387 125.631 502.979 125.592C501.816 125.338 500.983 124.842 500.542 124.041C500.101 123.239 499.544 123.122 498.844 123.865C498.044 124.718 496.171 124.334 495.48 125.285C494.586 126.02 493.588 126.283 492.609 126.041C492.476 126.002 492.341 126.002 492.209 126.041C489.79 127.247 486.407 127.344 484.597 129.234C483.614 130.257 482.32 130.661 480.556 130.453C479.016 130.264 477.905 130.674 477.255 131.691C476.803 132.382 476.051 132.714 474.855 132.779C472.948 132.877 471.068 133.17 469.169 133.366C467.838 133.502 467.632 133.431 467.299 132.505C466.967 131.58 466.077 130.603 466.38 129.501C466.529 128.967 466.006 128.544 465.258 128.478C464.317 128.424 463.394 128.024 462.548 127.305C461.502 126.589 460.38 126.276 459.258 126.387H455.766C454.969 126.216 454.163 126.186 453.362 126.295C451.946 126.413 450.712 126.758 450.704 127.977C450.704 128.257 450.704 128.57 450.245 128.687C449.843 128.751 449.44 128.599 449.089 128.25C448.383 127.846 448.207 127.234 447.841 126.693C446.719 125.031 445.545 124.627 443.149 125.148C441.003 125.605 439.141 126.38 437.859 127.683C437.114 128.382 436.256 128.627 435.422 128.381C435.048 128.302 434.614 128.263 434.207 128.25C431.848 128.159 430.147 127.533 429.634 125.794C429.47 125.233 428.887 124.738 428.102 124.529C426.326 124.06 424.531 123.519 422.599 124.191C421.467 124.509 420.316 124.579 419.174 124.399C416.551 124.2 413.924 124.418 411.323 125.051C410.394 125.288 409.451 125.301 408.52 125.09C406.872 124.683 405.196 124.791 403.57 125.409C402.74 125.712 401.9 125.914 401.054 126.015C400.202 126.139 399.794 125.95 399.787 125.292C399.787 124.327 399.697 124.308 398.441 124.588C396.194 125.042 393.979 125.882 391.827 127.097C390.395 127.917 388.922 128.508 387.427 128.863C385.711 129.299 384.063 129.886 382.392 130.407C380.926 130.893 379.446 131.235 377.958 131.43C376.339 131.623 374.739 132.139 373.188 132.968C372.026 133.581 370.84 134.049 369.64 134.369C368.625 134.631 367.624 135.043 366.649 135.601C365.287 136.314 363.862 136.592 362.443 136.422C360.245 136.291 358.054 136.187 355.849 136.233C354.727 136.233 353.561 136.317 352.409 136.435C350.933 136.606 349.45 136.464 347.994 136.011C347.352 135.813 346.719 135.528 346.102 135.158C344.648 134.229 343.047 134.287 341.616 135.32C341.06 135.854 340.434 136.124 339.799 136.102C339.491 136.074 339.183 136.174 338.902 136.396C337.852 137.327 336.551 137.184 335.19 136.826C334.117 136.596 333.037 136.483 331.956 136.487C330.932 136.441 330.42 136.767 330.36 137.464C330.353 137.557 330.34 137.649 330.322 137.738C330.257 138.106 330.126 138.428 329.949 138.657C329.587 139.016 329.171 139.179 328.756 139.126C327.997 139.22 327.239 138.938 326.569 138.311C326.466 138.206 326.376 138.067 326.304 137.901C326.176 137.623 326.116 137.271 326.135 136.917C326.225 135.731 325.761 134.617 325.466 133.463C324.636 133.424 324.935 134.258 324.143 134.193C323.739 133.985 323.922 133.691 323.937 133.424C323.952 133.157 323.81 132.922 323.32 132.812C321.72 132.427 320.819 131.574 320.277 130.518C320.098 130.166 319.937 129.801 319.739 129.456C319.622 129.146 319.47 128.881 319.293 128.677C319.116 128.473 318.916 128.335 318.707 128.27C317.997 128.022 317.642 128.589 317.077 128.68C315.901 128.94 314.735 129.32 313.585 129.821C312.415 130.251 312.09 130.87 312.307 131.697C312.524 132.525 312.815 133.352 313.054 134.187C313.22 134.614 313.354 135.076 313.454 135.562C313.567 136.474 313.383 136.604 312.075 136.728L310.654 136.897C309.436 137.034 308.509 136.715 307.851 136.011C307.555 135.698 307.267 135.36 307.013 135.047C305.929 133.626 304.396 132.518 302.325 131.789C301.26 131.411 300.766 130.902 300.37 130.023C299.914 129.019 300.037 128.289 300.546 127.416C300.942 126.712 301.147 125.898 300.418 125.09C299.491 125.741 299.585 126.823 298.475 127.279C297.488 127.69 296.347 127.931 295.308 128.27C292.272 129.312 292.265 129.312 290.497 127.364C290.149 126.973 289.784 126.631 289.405 126.341C288.803 125.891 288.519 125.409 288.751 124.797C288.833 124.582 289.031 124.327 288.56 124.204C288.25 124.111 287.932 124.179 287.644 124.399C286.392 125.611 284.653 126.654 284.736 128.309C284.739 128.503 284.714 128.695 284.665 128.869C284.429 129.808 284.003 130.173 282.665 130.173C279.449 130.173 276.234 130.414 273.016 130.283C271.495 130.167 269.98 129.88 268.481 129.423C267.183 129.012 265.87 128.753 264.552 128.648C262.832 128.576 262.159 128.902 261.673 130.003C261.61 130.181 261.554 130.366 261.505 130.557C260.866 132.512 260.17 132.851 257.307 132.805C255.542 132.805 253.755 132.753 252.073 133.34C251.108 133.623 250.12 133.554 249.172 133.137C245.93 131.972 242.648 131.178 239.347 130.759C237.011 130.427 235.982 131.411 236.865 132.936C237.455 133.932 238.177 134.89 238.809 135.887C239.085 136.317 239.343 136.754 239.34 137.243C239.336 137.731 239.213 138.09 238.476 138.24C237.74 138.39 237.295 138.24 237.063 137.725C236.9 137.503 236.723 137.312 236.536 137.158C235.844 137.81 235.134 137.712 234.214 137.419C232.345 136.826 230.584 136.115 228.607 135.653C227.362 135.335 226.094 135.426 224.868 135.92C222.984 136.731 221.038 137.01 219.103 136.748C217.032 136.452 214.953 137.127 213.081 138.702C212.187 139.458 211.346 140.24 210.464 141.009C210.406 141.052 210.35 141.1 210.296 141.153C209.668 141.68 209.01 142.241 208.053 141.381C207.944 141.297 207.827 141.253 207.709 141.25C206.673 141.542 205.612 141.316 204.647 140.599L204.202 140.318C203.831 140.099 203.432 140.067 203.05 140.227C202.891 140.316 202.727 140.382 202.561 140.423C202.259 140.491 201.954 140.491 201.652 140.423C201.278 140.364 200.905 140.234 200.564 140.123C199.682 139.823 199.032 139.334 198.718 138.67C198.404 138.005 198.116 137.419 197.817 136.793C197.443 135.998 196.744 135.379 195.671 134.975C194.295 134.454 192.8 134.043 192.306 132.851C192.243 132.701 191.839 132.629 191.715 132.473C191.48 132.127 191.179 131.949 190.872 131.975C190.565 132 190.275 132.227 190.059 132.61C189.267 132.167 189.611 131.691 189.685 131.261C189.85 130.355 189.454 129.664 188.426 129.019C186.762 127.97 185.274 126.797 183.711 125.67C183.314 125.432 182.961 125.014 182.687 124.458C182.048 122.979 180.646 122.138 178.433 121.734C176.42 121.296 174.386 121.226 172.365 121.525C171.858 121.549 171.355 121.693 170.87 121.956C169.7 122.881 168.272 122.803 166.941 122.314C165.071 121.623 162.828 121.662 161.004 120.822C160.249 120.529 159.462 120.608 158.731 121.05C157.023 121.993 155.235 122.416 153.445 122.301C150.69 122.118 149.007 123.168 148.028 124.51C146.286 126.895 143.302 128.511 141.018 130.544C140.222 131.254 139.407 131.951 138.585 132.649C138.304 132.952 137.98 133.115 137.65 133.118C137.295 133.046 137.328 132.838 137.235 132.675C136.764 131.841 136.45 131.769 135.556 132.323C135.201 132.544 134.902 132.812 134.592 133.053C133.847 133.614 133.033 133.838 132.225 133.704C131.495 133.61 130.76 133.693 130.042 133.952C129.388 134.187 128.734 134.499 128.079 133.887C127.704 133.704 127.307 133.704 126.932 133.887C125.904 134.118 124.89 134.502 123.9 135.034C122.479 135.887 121.821 135.737 120.161 135.105C117.361 134.056 114.554 132.916 111.126 133.209C109.906 133.349 108.683 133.091 107.518 132.447C106.303 131.792 105.062 131.291 103.806 130.948C103.431 130.781 103.048 130.685 102.662 130.661C99.8205 130.876 98.5083 129.456 97.5699 128.107C96.1344 126.054 94.2352 124.425 91.3641 123.272C90.1379 122.777 89.0425 122.099 87.7752 121.63C86.6985 121.226 85.1583 121.493 84.4442 120.522C84.1972 120.44 83.9436 120.44 83.6965 120.522C82.8345 120.901 81.9293 120.86 81.0796 120.405C80.6489 120.288 80.208 120.387 79.8085 120.691C79.2525 121.038 78.6793 121.296 78.0963 121.46C76.9299 121.728 76.186 121.571 75.442 120.874C73.7859 119.323 73.5279 119.271 70.8026 119.74C70.4063 119.812 70.01 119.896 69.6063 119.942C67.5015 120.17 66.0323 120.906 65.6061 122.392C65.0342 124.386 63.1014 125.351 60.3985 125.702C58.4096 125.963 56.7946 126.543 55.6656 127.716C55.2554 128.193 54.8789 128.753 54.5441 129.384C53.8898 130.433 53.2842 130.609 51.9271 129.958C51.4088 129.632 50.8416 129.632 50.3233 129.958C49.4598 130.544 48.555 130.348 47.6765 130.036C46.8877 129.756 46.1213 129.436 45.3998 129.084C44.4421 128.645 43.4711 128.299 42.4913 128.048C41.4644 127.725 40.4102 127.778 39.3958 128.205C37.1528 129.13 34.5994 128.798 32.1657 128.68C30.4983 128.602 30.3338 128.596 30.0983 129.723C30.0705 129.908 30.048 130.095 30.031 130.283C29.9899 130.557 30.1619 130.896 29.7207 131.046C29.2272 131.219 28.7149 131.111 28.259 130.74C27.3804 129.873 26.0608 129.723 24.7112 129.514C22.4158 129.156 20.8381 128.009 19.182 126.986C18.7309 126.64 18.2613 126.371 17.7801 126.185C15.6417 125.533 14.0416 124.301 11.9855 123.578C11.0995 123.246 10.3779 122.718 9.31622 122.588C8.75546 122.516 8.24703 122.327 8.13861 121.897C8.0302 121.467 8.43769 121.206 8.96855 121.03C9.49941 120.854 10.2134 120.75 9.69754 120.144C9.32373 119.689 8.90005 119.373 8.45299 119.216C8.00594 119.059 7.54512 119.064 7.09932 119.232C6.08994 119.636 5.15907 120.111 4.19455 120.535C3.17021 120.783 2.88982 121.532 2.14587 121.975C1.69725 122.184 1.21873 122.373 0.803766 122.627C0.328982 122.9 0.0186923 123.181 0.934614 123.409C1.39444 123.519 1.23369 123.826 0.886012 123.93C0.587454 124.021 0.291738 124.139 0 124.282V21.898C0.601891 21.898 1.20378 21.898 1.80567 21.9631L2.17951 21.7677C3.99053 20.6111 5.85722 19.7388 7.75729 19.1612C8.0788 19.083 8.3704 18.9265 8.69938 18.8809C10.4201 18.6524 12.1277 18.1861 13.8061 17.4864C14.1293 17.3954 14.455 17.3344 14.7818 17.304C15.3724 17.1671 15.9708 17.1671 16.5613 17.304C18.9502 17.7927 18.954 17.7927 19.754 16.1767C20.326 14.7952 21.6569 13.922 23.6121 13.4789C25.0476 13.1531 26.4271 12.7556 27.773 12.2734C29.6002 11.7193 31.4481 11.397 33.3022 11.309C34.977 11.1656 35.9191 10.6573 36.3901 9.56913C36.504 9.33397 36.6291 9.11598 36.764 8.9175C37.6201 7.52302 38.1621 7.30151 40.3828 7.4188C41.4744 7.48397 42.566 7.5361 43.6614 7.58823C44.4091 7.58823 45.1568 7.58824 45.3213 8.32458C45.4147 8.76768 46.1138 8.77413 46.6559 8.82626C47.7324 9.02644 48.8147 9.11568 49.8972 9.09345C50.7234 8.98268 51.6019 8.93055 52.4206 8.77416C53.3207 8.7041 54.1978 8.25707 54.9777 7.4709C56.0993 6.08293 58.2302 6.08295 59.5536 7.40576C60.2078 8.05739 60.7648 8.78065 61.5013 9.3997C62.7911 10.4749 63.7631 10.4489 65.1912 9.45188C66.051 8.84587 67.0604 8.37016 66.7838 7.32104C66.6454 6.8258 67.2511 6.66943 67.8716 6.85189C70.4138 7.66642 73.2438 7.98569 75.6102 9.09998C77.5019 9.98619 79.6964 10.4033 81.8609 10.8464C82.2584 10.9667 82.6633 10.993 83.0647 10.9246C83.3152 10.8268 83.5694 10.7421 83.8124 10.6704C85.6517 10.1947 87.7415 10.4553 89.5397 9.81675C91.1473 9.24983 92.5641 9.39319 93.4875 10.4684C94.9829 12.2604 97.1998 12.9576 99.9887 13.2053C101.267 13.3226 102.49 13.6744 103.794 13.2053C104.292 13.0358 107.339 13.7982 107.664 14.1762C108.34 14.9712 109.443 15.1406 110.602 15.2904C111.75 15.4985 112.903 15.5985 114.057 15.5902C116.061 15.4887 118.065 15.753 120.038 16.3787C120.79 16.6958 121.576 16.6643 122.318 16.2875C122.597 16.0575 122.913 16.0023 123.212 16.1311C124.057 16.8935 124.838 16.4634 125.653 16.1311C125.718 16.101 125.785 16.0877 125.851 16.0919C128.068 16.2223 130.296 16.3135 132.498 16.5286C133.085 16.5872 133.545 16.9195 134.091 16.4504C134.33 16.2675 134.59 16.1875 134.85 16.217C135.111 16.2465 135.363 16.3846 135.586 16.6198C136.226 17.1672 136.771 17.7732 137.418 18.314C138.54 19.2458 139.93 19.5391 141.646 19.2133C143.691 18.8093 145.789 18.5617 147.882 18.3401C149.732 18.2057 151.56 17.593 153.307 16.522C154.652 15.4704 156.13 15.0439 157.598 15.2839C158.582 15.4835 159.575 15.0779 160.406 14.1371C161.662 12.4428 164.724 12.1366 166.664 13.4854C166.855 13.6157 167.004 13.7787 167.176 13.9286C168.148 14.7627 168.148 14.7627 168.937 13.7852C169.726 12.8078 170.503 12.5341 172.16 12.886C175.236 13.5376 178.283 14.2414 181.349 14.9191C182.646 15.1927 183.928 15.5707 185.334 15.1406C185.803 15.0565 186.276 15.0895 186.74 15.2383C187.756 15.4599 188.291 15.1015 188.609 14.4955C188.834 13.9736 189.084 13.4854 189.356 13.0358C190.418 11.5306 192.194 11.2178 194.179 12.1952C195.245 12.71 196.228 12.9446 197.263 12.1952C197.613 11.9644 197.998 11.9644 198.347 12.1952C198.691 12.4102 198.86 12.8469 199.398 12.7882C200.254 12.6644 201.29 12.5666 201.862 12.1756C204.221 10.5857 206.923 10.8268 209.712 11.2699C210.045 11.3155 210.374 11.3807 210.711 11.4198C210.85 11.4218 210.99 11.4088 211.129 11.3807C211.376 10.9701 210.83 10.8073 210.527 10.6118C209.985 10.2534 209.361 9.96014 208.808 9.60826C208.254 9.25639 207.48 9.00221 207.847 8.34406C208.213 7.68592 209.488 7.3406 210.438 7.49699C211.298 7.63566 212.147 7.94167 212.969 8.40929C213.66 8.79375 214.329 9.19771 215.025 9.57565C216.039 10.1901 217.127 10.3383 218.184 10.0057C219.498 9.63672 220.843 9.82902 222.105 10.5661C224.506 11.8772 227.02 12.4462 229.534 12.2473C230.965 12.1887 232.218 11.889 233.123 11.081C233.362 10.8286 233.633 10.6783 233.912 10.642C234.191 10.6058 234.472 10.6847 234.73 10.8724C236.376 11.4209 238.057 11.5852 239.728 11.3611C240.929 11.1877 242.136 11.4586 243.272 12.1562C244.644 13.0098 245.788 14.0263 247.385 14.7235C248.38 15.2594 249.433 15.3909 250.462 15.108C252.088 14.5541 253.923 14.2544 255.258 13.3356C256.302 12.7322 257.38 12.3259 258.473 12.1235C259.395 11.953 260.286 11.4492 261.09 10.6443C262.585 8.97616 264.391 8.65033 267.071 9.48441C269.397 10.2294 271.747 10.7256 274.107 10.9701C274.987 11.1204 275.874 11.1204 276.754 10.9701C277.587 10.7556 278.428 10.651 279.27 10.6574C280.392 10.6574 281.513 10.7356 282.635 10.7617C283.562 10.7617 284.504 10.9115 285.087 11.4133L285.192 11.5175C285.738 12.0583 286.216 11.8955 286.911 11.7195C290.515 10.7682 293.988 10.6704 297.073 12.6057C297.775 13.0488 298.437 13.4789 299.106 12.5406C299.405 12.117 300.108 12.2017 300.561 12.4233C301.873 13.0749 303.484 13.1987 304.856 13.7265C305.356 13.9626 305.88 14.0005 306.389 13.8373C306.883 13.6172 307.404 13.6603 307.884 13.9611C308.124 14.1538 308.386 14.2498 308.65 14.2419C308.914 14.234 309.174 14.1225 309.409 13.9155C310.176 13.2639 311.062 13.4072 311.955 13.8047C312.937 14.181 313.884 14.7975 314.767 15.6358C315.078 16.0069 315.43 16.262 315.801 16.3853C316.171 16.5086 316.552 16.4975 316.92 16.3526C317.731 16.105 317.963 15.4729 317.63 14.6388C317.63 14.5997 317.574 14.5541 317.563 14.515C317.436 14.0719 316.86 13.5702 317.634 13.2118C318.464 12.8404 319.129 13.2118 319.817 13.5832C320.961 14.1762 321.997 14.8343 322.995 15.5381C323.743 16.0854 324.244 15.9812 324.737 15.3491C325.963 13.7852 326.061 13.7526 328.543 14.2544C328.801 14.4733 329.084 14.587 329.371 14.587C329.658 14.587 329.941 14.4733 330.199 14.2544C330.801 13.8829 331.416 13.5867 332.042 13.3682C333.164 13.101 333.911 12.7165 334.042 11.9541C334.057 11.8229 334.057 11.6878 334.042 11.5566C333.99 10.9506 334.704 10.9571 335.373 11.12C336.042 11.2829 336.308 11.6674 336.364 12.1105C336.387 12.2756 336.432 12.4293 336.495 12.5602C336.875 13.1993 337.342 13.6609 337.852 13.9025C338.377 14.2819 338.962 14.3371 339.508 14.0589C340.349 13.5767 341.295 13.6939 342.252 13.7135C343.414 13.7526 344.581 13.7591 345.743 13.7591C346.656 13.8381 347.569 13.6643 348.45 13.2443C348.876 12.9861 349.327 12.8798 349.777 12.9316C350.652 13.0423 350.947 12.6905 351.273 12.2343C351.972 11.283 352.42 11.2178 353.65 11.7716C354.086 11.9644 354.516 12.1994 354.936 12.4754C356.482 13.4009 358.103 13.8871 359.737 13.9155C361.232 13.9937 362.727 14.1501 364.178 14.4434C365.311 14.749 366.47 14.5379 367.542 13.8308C369.382 12.5275 371.95 11.9672 374.189 11.0744C374.707 10.9045 375.238 10.9045 375.756 11.0744C377.412 11.4915 378.272 11.2504 379.068 10.1817C379.408 9.71904 379.659 9.24333 379.965 8.77416C380.056 8.63516 380.151 8.50466 380.249 8.3832C380.997 7.41227 381.349 7.35364 382.836 7.82281C384.829 8.47444 386.724 9.21724 388.818 9.72551C388.88 9.73841 388.941 9.75805 389.001 9.78422C390.979 11.3612 393.816 11.1526 396.392 11.4133C396.791 11.4567 397.187 11.5372 397.581 11.6544C398.284 11.8839 398.967 12.267 399.615 12.7947C401.357 14.1827 403.544 14.9581 406.187 15.1536C406.588 15.2316 406.993 15.2316 407.394 15.1536C408.718 14.5606 409.484 15.2579 410.591 15.5642C414.845 16.7371 419.189 17.9426 423.716 15.9486C425.228 15.375 426.765 15.0263 428.311 14.906C430.838 14.6384 433.35 14.0371 435.825 13.1075C436.418 12.8747 436.983 12.4599 437.493 11.8824C438.24 11.0158 439.362 10.69 440.794 10.7551C441.276 10.7551 441.754 10.8072 442.233 10.8138C445.018 10.8529 447.818 11.1005 450.551 10.4945C450.999 10.3217 451.464 10.3217 451.912 10.4945C453.916 11.6348 456.177 11.7977 458.615 11.3546C459.363 11.2308 460.11 11.2178 460.836 11.0744C462.054 10.7461 463.3 10.8975 464.481 11.5175C465.426 11.9539 466.4 12.173 467.378 12.1691C468.384 12.2603 468.641 12.0714 468.589 11.4198C468.436 9.46493 468.436 9.46493 471.27 9.79726C472.537 9.94062 473.311 9.44534 473.262 8.53306C473.18 6.90399 473.206 6.95614 475.374 6.35664C476.567 6.03083 477.617 5.77667 478.87 6.24584C480.477 6.84534 481.797 7.63379 482.649 8.75459C482.712 8.81263 482.765 8.89651 482.804 8.99872C482.843 9.10092 482.867 9.21834 482.874 9.34068C482.881 9.46301 482.871 9.58651 482.844 9.70022C482.817 9.81393 482.775 9.91435 482.72 9.9927C482.519 10.3967 482.246 10.7747 482.018 11.1657C481.7 11.7196 480.956 12.2018 481.319 12.8729C481.835 13.8439 482.066 14.9125 483.457 15.5381C484.848 16.1636 486.197 16.7892 487.569 17.3887C487.937 17.5448 488.313 17.6451 488.691 17.6885C489.246 17.8319 489.812 17.6962 490.324 17.2974C490.668 16.9195 490.429 16.5612 490.126 16.2354C489.753 15.8509 489.33 15.4794 488.9 15.108C488.358 14.6453 488.526 14.2805 489.065 13.8634C489.812 13.2835 490.668 13.4529 491.528 13.6028C492.388 13.7526 492.713 14.2544 492.571 14.8017C492.362 15.6619 493.259 16.4113 493.001 17.2845C492.912 17.5907 493.465 17.7211 493.902 17.6885C494.856 17.6168 495.805 17.5256 496.755 17.4343C497.405 17.3627 497.633 17.0108 497.76 16.6328C498.508 14.3912 499.469 13.9025 503.282 14.1892C505.215 14.3326 506.579 13.8113 507.693 12.7947C508.49 12.0649 509.249 11.3937 510 10.729Z" fill="white"/>
</svg>
