<svg width="193" height="53" viewBox="0 0 193 53" fill="none" xmlns="http://www.w3.org/2000/svg">
<path opacity="0.25" fill-rule="evenodd" clip-rule="evenodd" d="M167.154 51.1947C180.739 51.1947 191.751 40.1821 191.751 26.5974C191.751 13.0126 180.739 2 167.154 2C153.569 2 142.557 13.0126 142.557 26.5974C142.557 40.1821 153.569 51.1947 167.154 51.1947Z" stroke="white" stroke-width="2.10835"/>
<path d="M175.194 22.0491C175.08 21.9201 174.896 21.8876 174.745 21.9672C174.651 22.0166 174.474 22.0815 174.265 22.1456C174.529 21.7841 174.742 21.3793 174.836 21.0155C174.876 20.8586 174.817 20.6933 174.688 20.5998C174.558 20.5071 174.386 20.5071 174.257 20.5998C174.054 20.7458 173.071 21.1846 172.45 21.3268C171.047 20.0622 169.413 19.9309 167.715 20.9506C166.334 21.7795 166.034 23.4651 166.093 24.4925C162.933 24.1797 160.969 22.4631 159.863 21.0425C159.786 20.9428 159.661 20.8903 159.544 20.898C159.421 20.9073 159.31 20.9776 159.247 21.0865C158.724 21.9942 158.579 22.9977 158.829 23.9888C158.966 24.5296 159.205 25.0062 159.482 25.3925C159.349 25.3253 159.221 25.2411 159.1 25.1407C158.988 25.0464 158.833 25.0286 158.702 25.0912C158.571 25.1553 158.487 25.2913 158.487 25.4404C158.487 27.1422 159.522 28.2778 160.489 28.8711C160.333 28.8518 160.17 28.8163 160.005 28.7645C159.864 28.7205 159.711 28.7645 159.613 28.8788C159.516 28.9924 159.492 29.1546 159.553 29.2929C160.096 30.5281 161.125 31.3779 162.398 31.6861C161.287 32.3574 159.799 32.6865 158.436 32.5251C158.26 32.4996 158.092 32.6147 158.036 32.7893C157.981 32.9639 158.053 33.1554 158.209 33.245C160.276 34.4386 162.144 34.865 163.759 34.865C166.109 34.865 167.923 33.9627 169.027 33.208C172.003 31.1763 173.858 27.5285 173.6 24.2646C174.077 23.9023 174.791 23.2333 175.233 22.5141C175.325 22.3689 175.308 22.1773 175.194 22.0491Z" fill="white"/>
<path opacity="0.25" fill-rule="evenodd" clip-rule="evenodd" d="M96.8757 51.1947C110.46 51.1947 121.473 40.1821 121.473 26.5974C121.473 13.0126 110.46 2 96.8757 2C83.2909 2 72.2783 13.0126 72.2783 26.5974C72.2783 40.1821 83.2909 51.1947 96.8757 51.1947Z" stroke="white" stroke-width="2.10835"/>
<path d="M99.1149 20.3013H101.376C101.584 20.3013 101.752 20.1422 101.752 19.9462V17.816C101.752 17.62 101.584 17.4609 101.376 17.4609H99.1149C96.8301 17.4609 94.9703 19.2127 94.9703 21.3664V23.8517H92.3328C92.1249 23.8517 91.9561 24.0108 91.9561 24.2067V26.337C91.9561 26.533 92.1249 26.692 92.3328 26.692H94.9703V34.1479C94.9703 34.3439 95.1391 34.503 95.3471 34.503H97.6078C97.8157 34.503 97.9845 34.3439 97.9845 34.1479V26.692H100.622C100.784 26.692 100.928 26.5941 100.98 26.4492L101.733 24.3189C101.772 24.211 101.752 24.0917 101.681 23.9987C101.61 23.9064 101.497 23.8517 101.376 23.8517H97.9845V21.3664C97.9845 20.7792 98.4917 20.3013 99.1149 20.3013Z" fill="white"/>
<path opacity="0.25" fill-rule="evenodd" clip-rule="evenodd" d="M26.5974 51.1947C40.1821 51.1947 51.1947 40.1821 51.1947 26.5974C51.1947 13.0126 40.1821 2 26.5974 2C13.0126 2 2 13.0126 2 26.5974C2 40.1821 13.0126 51.1947 26.5974 51.1947Z" stroke="white" stroke-width="2.10835"/>
<path d="M20.9524 21.6314C22.104 21.6314 23.0376 20.6978 23.0376 19.5462C23.0376 18.3945 22.104 17.4609 20.9524 17.4609C19.8008 17.4609 18.8672 18.3945 18.8672 19.5462C18.8672 20.6978 19.8008 21.6314 20.9524 21.6314Z" fill="white"/>
<path d="M22.6901 23.0234H19.2147C19.0229 23.0234 18.8672 23.1791 18.8672 23.371V33.7971C18.8672 33.9889 19.0229 34.1446 19.2147 34.1446H22.6901C22.8819 34.1446 23.0376 33.9889 23.0376 33.7971V23.371C23.0376 23.1791 22.8819 23.0234 22.6901 23.0234Z" fill="white"/>
<path d="M33.0465 22.4467C31.5612 21.9379 29.7032 22.3848 28.589 23.1862C28.5508 23.0368 28.4146 22.9256 28.2526 22.9256H24.7772C24.5854 22.9256 24.4297 23.0813 24.4297 23.2731V33.6992C24.4297 33.8911 24.5854 34.0468 24.7772 34.0468H28.2526C28.4444 34.0468 28.6001 33.8911 28.6001 33.6992V26.2063C29.1618 25.7226 29.8853 25.5683 30.4775 25.8199C31.0517 26.0625 31.3804 26.6547 31.3804 27.4436V33.6992C31.3804 33.8911 31.5361 34.0468 31.728 34.0468H35.2033C35.3952 34.0468 35.5509 33.8911 35.5509 33.6992V26.7436C35.5113 23.8876 34.1677 22.8304 33.0465 22.4467Z" fill="white"/>
</svg>
